<svg width="40" height="40" viewBox="0 0 40 40" fill="none" xmlns="http://www.w3.org/2000/svg">
<path fill-rule="evenodd" clip-rule="evenodd" d="M5.33337 4C5.33337 2.93913 5.7548 1.92172 6.50495 1.17157C7.25509 0.421427 8.27251 0 9.33337 0L30.6667 0C31.7276 0 32.745 0.421427 33.4951 1.17157C34.2453 1.92172 34.6667 2.93913 34.6667 4V36C34.6667 37.0609 34.2453 38.0783 33.4951 38.8284C32.745 39.5786 31.7276 40 30.6667 40H9.33337C8.27251 40 7.25509 39.5786 6.50495 38.8284C5.7548 38.0783 5.33337 37.0609 5.33337 36V4ZM16 32H24V29.3333H16V32Z" fill="white"/>
</svg>
