<svg width="55" height="55" viewBox="0 0 55 55" fill="none" xmlns="http://www.w3.org/2000/svg">
<path d="M43.5417 26.3542C43.5417 26.3542 38.9583 31.3271 38.9583 34.375C38.9583 35.5906 39.4412 36.7564 40.3008 37.6159C41.1603 38.4754 42.3261 38.9583 43.5417 38.9583C44.7572 38.9583 45.923 38.4754 46.7826 37.6159C47.6421 36.7564 48.125 35.5906 48.125 34.375C48.125 31.3271 43.5417 26.3542 43.5417 26.3542ZM11.9396 22.9167L22.9167 11.9396L33.8937 22.9167M37.95 20.4875L17.4625 0L14.2312 3.23125L19.6854 8.68542L7.88333 20.4875C6.53124 21.7708 6.53124 23.9938 7.88333 25.3458L20.4875 37.95C21.1521 38.6146 22.0458 38.9583 22.9167 38.9583C23.7875 38.9583 24.6812 38.6146 25.3458 37.95L37.95 25.3458C39.3021 23.9938 39.3021 21.7708 37.95 20.4875Z" fill="white"/>
</svg>
