<svg width="40" height="40" viewBox="0 0 40 40" fill="none" xmlns="http://www.w3.org/2000/svg">
<rect width="40" height="40" rx="6" fill="white"/>
<path d="M28.3333 6.66671C27.8913 6.66671 27.4674 6.49111 27.1548 6.17855C26.8423 5.86599 26.6667 5.44207 26.6667 5.00004C26.6667 4.55801 26.8423 4.13409 27.1548 3.82153C27.4674 3.50897 27.8913 3.33337 28.3333 3.33337H35C35.442 3.33337 35.866 3.50897 36.1785 3.82153C36.4911 4.13409 36.6667 4.55801 36.6667 5.00004V11.6667C36.6667 12.1087 36.4911 12.5327 36.1785 12.8452C35.866 13.1578 35.442 13.3334 35 13.3334C34.558 13.3334 34.134 13.1578 33.8215 12.8452C33.5089 12.5327 33.3333 12.1087 33.3333 11.6667V9.02337L23.6783 18.6784C23.3658 18.9908 22.9419 19.1664 22.5 19.1664C22.0581 19.1664 21.6342 18.9908 21.3217 18.6784L16.6667 14.0234L7.845 22.845C7.53066 23.1486 7.10966 23.3166 6.67266 23.3128C6.23567 23.309 5.81765 23.1338 5.50864 22.8247C5.19962 22.5157 5.02434 22.0977 5.02054 21.6607C5.01675 21.2237 5.18474 20.8027 5.48833 20.4884L15.4883 10.4884C15.8009 10.1759 16.2247 10.0004 16.6667 10.0004C17.1086 10.0004 17.5325 10.1759 17.845 10.4884L22.5 15.1434L30.9767 6.66671H28.3333ZM8.33333 30V35C8.33333 35.4421 8.15774 35.866 7.84518 36.1786C7.53262 36.4911 7.10869 36.6667 6.66667 36.6667C6.22464 36.6667 5.80072 36.4911 5.48816 36.1786C5.17559 35.866 5 35.4421 5 35V30C5 29.558 5.17559 29.1341 5.48816 28.8215C5.80072 28.509 6.22464 28.3334 6.66667 28.3334C7.10869 28.3334 7.53262 28.509 7.84518 28.8215C8.15774 29.1341 8.33333 29.558 8.33333 30ZM16.6667 23.3334C16.6667 22.8913 16.4911 22.4674 16.1785 22.1549C15.8659 21.8423 15.442 21.6667 15 21.6667C14.558 21.6667 14.134 21.8423 13.8215 22.1549C13.5089 22.4674 13.3333 22.8913 13.3333 23.3334V35C13.3333 35.4421 13.5089 35.866 13.8215 36.1786C14.134 36.4911 14.558 36.6667 15 36.6667C15.442 36.6667 15.8659 36.4911 16.1785 36.1786C16.4911 35.866 16.6667 35.4421 16.6667 35V23.3334ZM23.3333 25C23.7754 25 24.1993 25.1756 24.5118 25.4882C24.8244 25.8008 25 26.2247 25 26.6667V35C25 35.4421 24.8244 35.866 24.5118 36.1786C24.1993 36.4911 23.7754 36.6667 23.3333 36.6667C22.8913 36.6667 22.4674 36.4911 22.1548 36.1786C21.8423 35.866 21.6667 35.4421 21.6667 35V26.6667C21.6667 26.2247 21.8423 25.8008 22.1548 25.4882C22.4674 25.1756 22.8913 25 23.3333 25ZM33.3333 18.3334C33.3333 17.8913 33.1577 17.4674 32.8452 17.1549C32.5326 16.8423 32.1087 16.6667 31.6667 16.6667C31.2246 16.6667 30.8007 16.8423 30.4882 17.1549C30.1756 17.4674 30 17.8913 30 18.3334V35C30 35.4421 30.1756 35.866 30.4882 36.1786C30.8007 36.4911 31.2246 36.6667 31.6667 36.6667C32.1087 36.6667 32.5326 36.4911 32.8452 36.1786C33.1577 35.866 33.3333 35.4421 33.3333 35V18.3334Z" fill="black"/>
</svg>
